<?xml version="1.0" standalone="no"?>
<!DOCTYPE svg PUBLIC "-//W3C//DTD SVG 20010904//EN"
 "http://www.w3.org/TR/2001/REC-SVG-20010904/DTD/svg10.dtd">
<svg version="1.0" xmlns="http://www.w3.org/2000/svg"
 width="477.000000pt" height="477.000000pt" viewBox="0 0 477.000000 477.000000"
 preserveAspectRatio="xMidYMid meet">
<metadata>
Created by potrace 1.14, written by Peter Selinger 2001-2017
</metadata>
<g transform="translate(0.000000,477.000000) scale(0.100000,-0.100000)"
fill="#000000" stroke="none">
<path d="M2385 4210 c-64 -14 -115 -53 -142 -110 -13 -27 -67 -123 -101 -180
-11 -19 -32 -55 -45 -80 -14 -25 -34 -61 -46 -80 -11 -19 -25 -44 -30 -55 -5
-11 -40 -74 -77 -140 -38 -67 -76 -134 -84 -150 -20 -37 -64 -82 -103 -102
-27 -13 -93 -16 -511 -17 -374 -1 -480 -4 -484 -13 -2 -7 -9 -13 -15 -13 -24
-1 -58 -40 -105 -122 -26 -45 -51 -90 -55 -98 -4 -8 -17 -31 -28 -50 -53 -89
-119 -211 -119 -220 0 -5 -4 -10 -10 -10 -5 0 -10 -4 -10 -9 0 -4 -43 -84 -96
-177 -117 -206 -126 -226 -129 -289 -2 -53 5 -73 35 -108 11 -12 20 -26 21
-32 1 -5 9 -21 19 -35 15 -21 158 -269 248 -430 153 -274 187 -325 230 -352
l37 -23 463 -2 c395 -1 469 -4 502 -17 43 -17 88 -59 110 -103 8 -15 25 -43
37 -61 12 -18 32 -54 44 -80 12 -26 28 -54 34 -62 7 -8 26 -40 42 -70 31 -57
45 -81 114 -203 23 -40 53 -92 66 -117 79 -142 109 -175 173 -193 34 -10 161
-13 535 -12 536 1 519 0 576 62 15 15 44 60 65 98 21 39 40 72 43 75 3 3 17
28 31 55 14 28 30 57 36 65 11 15 36 59 97 170 16 30 33 60 37 65 7 9 20 31
78 135 52 93 116 195 124 198 4 2 6 8 3 13 -4 5 -8 30 -11 56 -5 46 -24 90
-75 179 -56 97 -79 140 -79 147 0 8 43 3 58 -7 5 -3 9 0 9 7 0 7 -15 13 -34
13 -41 2 -66 26 -93 89 l-19 45 22 -15 c12 -7 25 -14 30 -14 22 1 73 -15 79
-24 4 -6 10 -8 14 -4 4 4 2 13 -5 20 -12 12 -16 14 -51 16 -11 0 -20 5 -20 11
0 5 14 8 30 6 17 -2 30 0 30 3 0 4 9 8 20 9 11 1 28 3 38 4 19 2 140 -9 187
-18 56 -9 93 -25 99 -41 9 -22 -16 -45 -48 -45 -14 0 -26 -5 -26 -11 0 -6 3
-7 7 -4 3 4 13 1 21 -6 13 -9 14 -9 8 1 -5 8 -1 12 11 12 45 0 55 41 21 78
-18 20 -19 24 -5 19 9 -4 17 -2 17 3 0 6 -18 8 -39 6 -22 -2 -55 0 -73 4 l-33
8 31 1 c19 1 42 12 60 28 39 37 92 39 161 5 44 -21 57 -23 78 -14 31 14 25 30
-22 61 -43 28 -110 34 -172 15 -38 -11 -48 -11 -73 2 -26 13 -35 13 -78 1 -43
-13 -50 -13 -66 2 -17 15 -17 15 -5 -1 11 -15 8 -19 -24 -33 -46 -18 -50 -19
-64 -1 -8 10 -21 12 -39 7 -38 -9 -86 -5 -113 10 -23 12 -23 13 -4 17 11 2 53
15 92 29 40 13 78 21 85 17 6 -4 8 -3 5 3 -4 5 6 16 21 23 55 26 107 54 112
60 3 3 21 17 40 30 59 39 151 141 187 207 76 138 40 239 -117 322 -87 47 -206
78 -308 83 -24 0 -45 4 -47 8 -2 4 6 26 18 50 20 39 26 44 62 45 22 2 49 5 60
8 11 3 23 6 27 6 4 1 9 10 13 21 3 11 27 29 53 40 25 12 55 28 65 38 35 32 65
106 47 117 -6 3 -6 15 0 29 5 13 12 56 16 95 5 55 4 71 -6 71 -8 0 -10 3 -7 7
4 3 -5 12 -20 20 -30 15 -151 25 -158 12 -3 -4 4 -6 15 -4 25 5 26 -6 2 -21
-32 -20 -44 -4 -177 236 -32 58 -73 130 -92 161 -18 31 -33 62 -33 68 0 6 -4
11 -8 11 -5 0 -14 16 -22 35 -8 19 -18 35 -24 35 -5 0 -7 3 -4 6 4 3 -5 22
-18 41 -13 20 -24 42 -24 49 0 8 -3 14 -7 14 -5 0 -13 10 -19 23 -34 70 -79
146 -102 170 -59 63 -44 61 -547 64 -253 1 -473 4 -490 6 -16 2 -43 1 -60 -3z
m1555 -2130 c8 -5 11 -12 8 -16 -4 -3 -14 1 -23 10 -18 17 -9 21 15 6z m-203
-127 c-9 -8 -48 8 -42 18 4 5 14 5 26 -2 12 -6 18 -13 16 -16z m-107 -84 c0
-14 -17 -10 -23 5 -4 10 -1 13 9 9 7 -3 14 -9 14 -14z m87 -5 c-3 -3 -12 -4
-19 -1 -8 3 -5 6 6 6 11 1 17 -2 13 -5z"/>
<path d="M4290 1870 c-8 -5 -10 -10 -5 -10 6 0 17 5 25 10 8 5 11 10 5 10 -5
0 -17 -5 -25 -10z"/>
<path d="M4248 1863 c7 -3 16 -2 19 1 4 3 -2 6 -13 5 -11 0 -14 -3 -6 -6z"/>
<path d="M4470 1786 c0 -2 8 -10 18 -17 15 -13 16 -12 3 4 -13 16 -21 21 -21
13z"/>
<path d="M4316 1740 c6 -6 24 -13 38 -14 36 -4 19 13 -20 20 -22 4 -26 2 -18
-6z"/>
<path d="M4390 1742 c0 -4 11 -8 25 -8 28 0 24 8 -5 13 -11 2 -20 -1 -20 -5z"/>
<path d="M3867 1689 c7 -7 15 -10 18 -7 3 3 -2 9 -12 12 -14 6 -15 5 -6 -5z"/>
<path d="M3975 1690 c-3 -5 -1 -10 4 -10 6 0 11 5 11 10 0 6 -2 10 -4 10 -3 0
-8 -4 -11 -10z"/>
<path d="M4060 1689 c-49 -4 -33 -6 65 -7 72 0 138 -4 148 -7 9 -4 17 -3 17 2
0 5 -6 10 -12 11 -60 5 -165 6 -218 1z"/>
<path d="M3908 1668 c5 -5 16 -8 23 -6 8 3 3 7 -10 11 -17 4 -21 3 -13 -5z"/>
<path d="M4310 1663 c8 -3 22 -11 30 -17 13 -10 13 -9 1 7 -7 9 -21 17 -30 16
-13 0 -14 -1 -1 -6z"/>
<path d="M4490 1649 c0 -5 5 -7 10 -4 6 3 10 8 10 11 0 2 -4 4 -10 4 -5 0 -10
-5 -10 -11z"/>
<path d="M4449 1623 c-13 -17 -13 -17 6 -3 11 8 22 16 24 17 2 2 0 3 -6 3 -6
0 -17 -8 -24 -17z"/>
<path d="M4380 1595 c-19 -7 -28 -14 -20 -14 8 0 29 6 45 14 39 17 21 18 -25
0z"/>
<path d="M4245 1570 c-3 -5 1 -10 10 -10 9 0 13 5 10 10 -3 6 -8 10 -10 10 -2
0 -7 -4 -10 -10z"/>
</g>
</svg>
