<svg width="966" height="410" viewBox="0 0 966 410" fill="none" xmlns="http://www.w3.org/2000/svg">
<g opacity="0.45">
<path opacity="0.9" fill-rule="evenodd" clip-rule="evenodd" d="M853.761 382.205C843.06 394.343 821.338 392.522 817.77 374.772C816.067 365.97 818.545 355.351 822.425 347.916C831.112 331.681 846.781 318.33 864.623 313.931C864.623 323.945 864.623 337.144 864.313 347.31C863.999 358.537 861.52 373.252 853.761 382.205ZM681.101 142.337C691.031 142.943 698.944 153.562 696.305 171.617C693.048 193.011 674.896 215.919 654.265 221.077C651.005 213.492 649.456 198.016 651.315 182.845C654.73 155.079 669.312 141.728 681.101 142.337ZM294.363 245.808C279.004 225.781 279.623 201.506 284.435 178.445C299.481 211.519 339.662 217.286 364.481 212.43C361.225 237.919 347.569 260.222 323.993 260.222C310.806 260.373 301.185 254.76 294.363 245.808ZM348.658 152.347C356.227 159.905 361.334 170.923 363.671 183.151C363.685 183.15 363.706 183.299 363.706 183.299C363.697 183.249 363.683 183.201 363.671 183.151C346.309 185.571 329.568 182.385 317.322 173.133C308.481 166.306 306.152 155.535 309.876 149.011C315.303 139.605 331.595 135.508 348.658 152.347ZM112.24 27.9376C122.942 15.6504 144.661 17.6197 148.074 35.3727C149.779 44.0198 147.452 54.6401 143.577 62.0739C134.885 78.3074 119.218 91.658 101.377 96.2103C101.377 86.0474 101.221 72.9979 101.691 62.8337C101.999 51.6061 104.482 36.7372 112.24 27.9376ZM904.181 291.021C904.334 238.223 904.181 185.424 904.181 132.625C904.181 119.578 865.863 118.817 864.623 132.019C864.623 137.328 864.623 142.79 864.466 148.1C863.848 177.079 849.731 231.243 826.306 250.966C819.945 256.278 814.203 256.581 810.173 253.696C806.603 251.117 805.67 244.596 805.67 238.981V231.699C805.67 199.079 805.828 165.397 805.67 132.776C805.67 119.728 767.354 118.817 766.113 132.019C766.113 162.361 766.113 191.797 766.27 221.837C740.981 261.284 682.498 279.794 658.298 233.063C673.346 238.678 689.323 235.946 700.184 230.333C718.956 220.622 733.226 204.541 736.018 179.052C738.655 104.404 637.823 94.241 615.326 170.252C611.604 182.845 609.588 196.348 610.054 209.547C610.516 222.139 613.155 233.822 617.654 244.14C609.43 252.028 599.968 257.49 590.507 257.188C578.093 256.732 579.338 241.713 579.338 233.063V176.168C579.338 169.341 579.338 162.514 578.715 155.84C576.701 135.964 561.186 120.184 539.469 118.817C508.595 118.363 486.878 146.431 476.174 177.231C476.021 160.087 476.174 149.92 476.174 132.625C476.021 119.728 440.496 118.817 436.462 132.472C431.343 149.769 414.587 163.272 398.918 171.312C394.112 159.935 388.063 149.467 379.685 140.516C345.243 103.949 295.449 110.627 266.281 140.817C243.167 164.79 236.19 208.03 248.599 238.373C239.446 248.996 226.882 257.643 215.712 257.188C210.125 256.884 207.023 253.696 205.626 248.691C204.229 243.835 204.542 238.072 204.542 233.063C204.542 214.098 204.385 195.133 204.542 176.168C204.542 169.341 204.542 162.514 203.923 155.84C201.904 135.964 189.959 120.031 167.311 118.668C128.371 116.996 112.704 153.867 101.221 184.209V119.425C109.445 118.059 117.358 116.086 125.267 113.812C211.056 89.6874 194.456 1.53742 130.545 0.0217029C87.4179 -0.887985 61.819 26.8754 62.132 69.0529V96.3627C46.6176 94.0885 34.9816 74.365 28.4689 61.6204C27.5354 59.6472 26.6044 57.6741 25.6761 55.701C24.901 53.7292 22.7288 52.6696 20.7085 53.2756C19.005 53.7291 17.299 54.3377 15.5903 54.9438C9.38795 57.6754 4.26451 62.3789 1.78594 68.5993C-2.71164 79.6745 1.78594 91.5094 9.69433 99.8529C22.7288 113.205 43.5171 118.059 61.819 118.969C61.6632 171.617 61.819 224.112 61.819 276.759C62.4397 284.194 72.8358 286.167 78.8849 286.317C85.247 286.47 99.0513 284.496 99.2085 276.002L99.6733 269.476C102.31 246.113 125.267 152.652 154.277 152.499C161.415 152.499 164.984 157.052 164.984 163.88V247.175C164.984 272.966 179.875 290.262 206.869 290.262C227.812 290.415 246.734 275.544 258.06 257.037C259.61 259.008 260.853 261.132 262.559 262.952C277.295 279.794 299.015 290.567 323.837 290.718C377.974 289.958 405.743 244.443 403.73 199.685C416.295 192.859 427.62 184.057 436.304 173.133V276.759C436.926 284.194 447.787 286.167 453.838 286.317C460.195 286.47 474.005 284.496 474.005 276.002L474.624 269.476L476.483 252.181C479.279 228.057 497.739 152.652 529.23 152.499C536.208 152.499 539.781 157.052 539.781 163.88V247.175C539.781 272.966 554.673 290.262 581.817 290.262C600.59 290.415 617.654 278.428 629.134 262.65C644.335 281.008 667.609 291.779 695.528 291.779C728.264 291.779 751.995 277.67 767.82 254.911C771.388 274.485 782.092 289.958 808.311 290.262C835.455 290.415 856.09 253.395 864.623 231.09V290.718C856.553 292.083 848.644 294.056 840.734 296.33C754.945 320.304 771.388 408.603 835.302 409.971C878.583 411.033 904.024 383.267 903.871 341.089C903.871 333.959 903.715 320.607 903.871 313.627C919.228 315.904 931.017 335.78 937.379 348.524C938.463 350.496 939.396 352.467 940.172 354.44C941.102 356.413 943.117 357.323 945.29 356.867C946.996 356.413 948.702 355.807 950.253 355.046C956.615 352.317 961.736 347.766 964.217 341.393C968.716 330.318 964.217 318.635 956.149 310.289C943.275 296.787 922.328 292.083 904.181 291.021Z" fill="#FFA638"/>
</g>
</svg>
